<svg version="1.1" xmlns="http://www.w3.org/2000/svg" xmlns:xlink="http://www.w3.org/1999/xlink" width="127.57459" height="120.84884" viewBox="0,0,127.57459,120.84884"><g transform="translate(-173.64258,-119.37421)"><g data-paper-data="{&quot;isPaintingLayer&quot;:true}" fill-rule="nonzero" stroke-miterlimit="10" stroke-dasharray="" stroke-dashoffset="0" style="mix-blend-mode: normal"><path d="M268.77861,190.93486c0,0 -1.50164,-1.48918 -1.60717,-3.1119c-0.38141,-5.86491 0.1729,-19.24141 0.1729,-22.22697c0,-1.11065 1.43427,-2.15141 1.43427,-2.15141c0,0 1.69641,-1.19523 3.34664,-1.19523c3.91481,0 19.40854,-0.12284 24.65137,0.15216c1.03597,0.05434 2.36082,1.04307 2.36082,1.04307c0,0 1.48874,0.08621 1.57646,1.409c0.36237,5.46507 -0.14218,20.51367 -0.14218,23.69082c0,1.21782 -1.43428,2.39046 -1.43428,2.39046c0,0 -0.29451,1.75535 -1.93347,1.88542c-6.27466,0.498 -22.4608,0.02694 -25.5568,0.02694c-1.01241,0 -2.86855,-1.91236 -2.86855,-1.91236z" fill="#00d2ff" stroke="none" stroke-width="NaN" stroke-linecap="butt" stroke-linejoin="miter"/><path d="M237.06294,127.64204l43.77605,-1.78043l3.75737,43.23835" data-paper-data="{&quot;index&quot;:null}" fill="none" stroke="#00d2ff" stroke-width="12.5" stroke-linecap="round" stroke-linejoin="miter"/><path d="M233.3923,214.2985v0v0v0v0v0v0c2.1993,4.0857 -2.2816,10.1913 -2.6534,10.7281c-0.6417,0.6261 0,0 -0.0108,0.0153c0,0 -3.2201,3.4768 -5.35,2.2977c-0.9071,-0.5006 -1.3168,-1.3883 -1.3376,-2.5512c-0.398,-0.1272 -0.9485,-0.3969 -1.1949,-0.9797c-0.4106,-0.9689 1.657,-1.7176 1.657,-1.7176v0.0144c0.0948,-0.2995 0.1968,-0.6071 0.3204,-0.9265c0.6986,-1.8078 2.4205,-5.3424 2.4205,-5.3424c0,0 3.9214,-5.6762 6.1488,-1.5381z" fill="#000560" stroke="#000000" stroke-width="0.90231" stroke-linecap="round" stroke-linejoin="round"/><path d="M258.05629,221.72057v0v0v0v0v0v0c0,0 1.90697,1.09647 1.33258,1.97851c-0.34236,0.53623 -0.9328,0.70559 -1.34533,0.76421c-0.22041,1.13641 -0.77702,1.9437 -1.75775,2.28005c-1.49766,0.51495 -3.01621,-0.89982 -3.8979,-1.95385c-0.42956,-0.41331 -0.91383,-0.86555 -1.34932,-1.22945c-1.09877,-0.919 -3.16893,-6.20504 -2.14256,-8.79194c1.02636,-2.5869 6.43412,1.12833 6.43412,1.12833c1.1374,1.55504 2.31137,3.55508 2.56963,4.86711c0.06475,0.33644 0.11339,0.6601 0.15343,0.97485z" fill="#000560" stroke="#000000" stroke-width="0.90231" stroke-linecap="round" stroke-linejoin="round"/><path d="M235.7803,224.645v0v0v0v0v0v0c3.9006,1.4858 5.4402,2.295 4.8906,5.4028c-0.4124,2.3302 1.5767,7.4471 1.5767,7.4471c0,0 0.9657,0.2769 0.6344,1.0555c-0.3312,0.7875 -2.7264,1.3108 -5.831,1.1457c-3.1037,-0.1642 -5.5423,-0.1281 -5.8942,-0.8733c-0.3529,-0.7415 0.2942,-1.087 0.2942,-1.087c0,0 0.12,-1.7583 0.1236,-3.6482c0,-1.89 -0.3005,-7.061 -0.3005,-7.061c0,0 0.6056,-3.8674 4.5062,-2.3816z" fill="#000560" stroke="#000000" stroke-width="0.90231" stroke-linecap="butt" stroke-linejoin="miter"/><path d="M245.8522,225.3351v0v0v0v0v0v0c2.9331,-1.3387 4.7164,-1.5607 5.4682,0.0018c0,0 1.4702,2.7461 2.2102,5.6067c0.7383,2.8589 1.2671,6.1471 1.2671,6.1471c0,0 0.9802,0.5215 0.9729,1.0357c-0.0054,0.5142 -0.8492,1.5201 -5.2985,1.6455c-4.4476,0.1199 -6.0323,-0.6099 -6.1695,-1.2829c-0.1408,-0.6721 0.3808,-0.7316 0.3808,-0.7316c0,0 0.0614,-0.7298 0,-2.4953c-0.0604,-1.7654 -0.7933,-5.0167 -0.7933,-5.0167c0,0 -0.9711,-3.5715 1.9621,-4.9103z" fill="#000560" stroke="#000000" stroke-width="0.90231" stroke-linecap="butt" stroke-linejoin="miter"/><path d="M239.1529,210.6792v0v0v0v0v0v0c8.1063,-0.627 11.2027,4.074 11.2009,4.0731c0.6598,1.2142 1.4792,2.9274 1.8195,4.4917c0.0938,0.4321 0.1516,0.9183 0.166,1.4398c0,0 -0.0478,1.8114 -0.2238,2.3644c-0.7382,2.3167 -1.9404,4.8526 -4.8157,5.9992c-4.5143,1.8078 -9.3192,1.5859 -14.3119,-0.7894c-1.6849,-0.7993 -2.6831,-2.1615 -3.2219,-3.7122c-0.3845,-1.116 -0.5487,-2.5711 -0.5487,-2.5711c-0.2365,-2.4204 0.1868,-4.7831 0.4124,-5.8106c0,0 1.4179,-4.858 9.5232,-5.4849z" fill="#000560" stroke="#000000" stroke-width="0.90231" stroke-linecap="butt" stroke-linejoin="miter"/><path d="M197.2074,196.8811v0v0v0v0v0v0c-0.0478,-0.083 -1.444,-2.4149 -1.444,-2.4159c-3.8726,-6.2165 -4.7309,-20.2761 -4.3943,-24.6641l0.0298,-0.2102c1.1002,-18.5991 9.7497,-28.5261 14.8579,-33.7801c11.5944,-11.9333 29.1688,-12.4187 29.1688,-12.4187l0.6227,12.0732c0,0 -0.0334,-3.4723 7.0368,-9.5427c7.0684,-6.0704 7.84074,3.61673 7.84074,3.61673l4.13366,6.32917c0,0 3.2697,-4.7127 5.9493,-6.4349c4.7507,-3.0482 6.1276,3.10188 6.1276,3.10188l1.5328,4.54372c0,0 7.0702,9.1656 12.4815,17.7782c1.158,1.8376 2.5,3.6978 3.351,5.8376c3.0947,7.7746 3.5414,21.6312 0.0722,28.4946c-0.5992,1.2143 -1.2517,2.3934 -1.9286,3.5526c-0.176,0.2977 -0.3529,0.5936 -0.5325,0.8859c-0.62,1.0194 -1.2671,2.0189 -1.9476,2.9878c-0.092,0.129 -0.176,0.2661 -0.268,0.3952c-0.7717,1.078 -1.5857,2.1163 -2.4323,3.1258c-0.2021,0.2436 -0.4151,0.479 -0.6218,0.7208c-0.7256,0.8336 -1.4774,1.6437 -2.249,2.4231c-0.1778,0.1823 -0.3511,0.3672 -0.5307,0.5431c-0.9287,0.9076 -1.8961,1.7727 -2.8925,2.599c-0.222,0.1814 -0.4494,0.3546 -0.6733,0.5323c-0.8366,0.6676 -1.7012,1.3054 -2.5856,1.9134c-0.2554,0.1732 -0.5045,0.3554 -0.7617,0.525c-1.0803,0.71 -2.1868,1.3767 -3.3294,1.9928c-0.2039,0.111 -0.4205,0.2084 -0.6272,0.3158c-0.9765,0.5079 -1.9756,0.9752 -2.9963,1.4082c-4.3176,1.8304 -9.006,3.0221 -14.0402,3.3848c-5.7534,0.4141 -10.9618,0.2399 -15.6665,-0.3735c-1.1633,-0.1516 -2.295,-0.3329 -3.397,-0.5359c-0.2094,-0.0424 -0.4179,-0.083 -0.6254,-0.1236c-1.1173,-0.2201 -2.2139,-0.4564 -3.2662,-0.7262c-0.0063,-0.0018 -0.0144,-0.0036 -0.0216,-0.0054c-1.0542,-0.267 -2.0677,-0.5665 -3.0577,-0.8841c-0.1733,-0.055 -0.3511,-0.11 -0.5235,-0.166c-0.9512,-0.3112 -1.8781,-0.6441 -2.7715,-0.9968c-0.1571,-0.0595 -0.3087,-0.1272 -0.4648,-0.1885c-0.8818,-0.3555 -1.7418,-0.7254 -2.5667,-1.1169c-0.0316,-0.018 -0.0668,-0.0298 -0.0975,-0.046c-0.8447,-0.4041 -1.6516,-0.8263 -2.4358,-1.2585c-0.1463,-0.0811 -0.2916,-0.1605 -0.4341,-0.2417c-0.7545,-0.4285 -1.4856,-0.8661 -2.1823,-1.3171c-0.1065,-0.0677 -0.2076,-0.1381 -0.3132,-0.2066c-0.6615,-0.4366 -1.3014,-0.8823 -1.9133,-1.337c-0.0631,-0.0433 -0.1326,-0.0893 -0.1931,-0.1371c-0.6381,-0.479 -1.2409,-0.9689 -1.8221,-1.4623c-0.1129,-0.0948 -0.2239,-0.1904 -0.3322,-0.2851c-0.5667,-0.4935 -1.1118,-0.9878 -1.6245,-1.4939c-0.0586,-0.0551 -0.1119,-0.1137 -0.1696,-0.1696c-0.4829,-0.4809 -0.9413,-0.9653 -1.3745,-1.4498c-0.0605,-0.0703 -0.1291,-0.1389 -0.1905,-0.2074c-0.444,-0.5097 -1.4034,-1.7186 -1.4774,-1.8151c-0.3862,-0.5106 -0.7545,-1.0203 -1.0875,-1.5273c-0.0207,-0.0316 -0.0406,-0.0632 -0.0595,-0.0947c-0.3195,-0.4881 -0.6101,-0.9689 -0.8818,-1.448z" fill="#000eff" stroke="#000000" stroke-width="0.90231" stroke-linecap="butt" stroke-linejoin="miter"/><path d="M265.4608,169.747v0v0v0v0v0v0c0,0 10.5141,11.8864 7.2651,24.2167c-3.2472,12.3266 -22.6527,17.549 -37.5629,16.6117c-19.7106,-1.2404 -28.8485,-12.9789 -25.6049,-24.1815c3.2481,-11.2026 29.343,-16.4394 29.343,-16.4394l-4.2851,8.0487c0,0 3.3754,-0.5214 6.1018,-2.0803c2.7256,-1.5561 5.7147,-3.6319 5.7147,-3.6319l-6.2435,8.8453c0,0 8.2461,-0.0884 15.3867,-2.9463c7.1406,-2.8543 9.8851,-8.443 9.8851,-8.443z" fill="#e6e7e8" stroke="#000000" stroke-width="0.90231" stroke-linecap="butt" stroke-linejoin="miter"/><path d="M278.9144,163.3202c0,0 16.9236,-9.5057 20.7917,-1.4226c3.8682,8.083 -3.0513,17.5554 -17.4913,26.1256c0,0 0.3186,-14.0723 -3.3004,-24.703v0v0zM278.9144,163.3202c-0.3024,-1.244 -1.3015,-3.6229 -1.3015,-3.6229M281.8394,190.2144l0.1814,-2.276" fill="#000eff" stroke="#000000" stroke-width="0.90231" stroke-linecap="round" stroke-linejoin="miter"/><path d="M282.0208,187.9375c0.0938,-2.6063 0.0902,-6.8977 -0.4973,-12.2563c-0.3385,-3.1187 -0.9928,-6.3357 -1.6642,-9.1142l0.0018,0.0036c9.913,-2.5233 18.7359,6.6387 18.7359,6.6387h0.0036c-4.9547,8.2247 -16.5004,14.5008 -16.5004,14.5008l-0.0794,0.2274v0v0z" fill="#5500ff" stroke="#000000" stroke-width="0.90231" stroke-linecap="butt" stroke-linejoin="miter"/><path d="M199.4862,194.2226c-14.0564,-5.5932 -21.641,-13.1566 -19.5165,-21.1017c2.1254,-7.9459 18.5148,-1.88 18.5148,-1.88c-1.5027,10.2247 1.0017,22.9817 1.0017,22.9817v0v0zM199.0575,167.7461c0,0 -0.5036,2.3157 -0.5721,3.4948M199.6433,194.1143l0.5198,2.0442" fill="#9a8479" stroke="#000000" stroke-width="0.90231" stroke-linecap="round" stroke-linejoin="miter"/><path d="M199.5377,193.9204c0,0 -11.1486,-3.9486 -16.8073,-10.6749l0.0027,-0.0009c0,0 6.313,-9.6834 15.4319,-8.9013l0.0009,-0.0027c-0.1516,2.6297 -0.2184,5.6572 -0.0226,8.5459c0.3303,4.9662 1.0054,8.8715 1.5,11.2278l-0.1056,-0.1939v0v0z" fill="#5500ff" stroke="#000000" stroke-width="0.90231" stroke-linecap="butt" stroke-linejoin="miter"/><path d="M253.97394,189.12665c-0.65429,-0.00269 -1.22454,-0.47866 -1.33008,-1.14579c-0.11526,-0.73838 0.39031,-1.431 1.12909,-1.54605c0.67184,-0.10283 6.6267,-1.00657 8.81867,-0.72503c0.74151,0.09686 1.26571,0.77563 1.17337,1.51315c-0.09697,0.74301 -0.78589,1.25617 -1.51565,1.17286c-1.37919,-0.1735 -5.67007,0.34292 -8.0605,0.71195c-0.07226,0.0141 -0.14448,0.0192 -0.21488,0.01892v0v0v0v0v0v0z" fill="#231f20" stroke="none" stroke-width="0.90231" stroke-linecap="butt" stroke-linejoin="miter"/><path d="M232.02376,189.37205c-0.08479,0.00107 -0.1707,-0.00684 -0.25928,-0.02113c-3.13278,-0.56493 -8.62077,0.11966 -8.6748,0.12575c-0.72911,0.09041 -1.41711,-0.42786 -1.51308,-1.17001c-0.09415,-0.74047 0.42975,-1.41833 1.17231,-1.51251c0.24337,-0.02737 5.95212,-0.74084 9.49645,-0.10351c0.73452,0.13145 1.22544,0.8353 1.09215,1.57405c-0.1174,0.64294 -0.67929,1.09936 -1.31373,1.10736v0v0v0v0v0v0z" fill="#231f20" stroke="none" stroke-width="0.90231" stroke-linecap="butt" stroke-linejoin="miter"/><path d="M254.8853,195.4738c0,0 -3.6524,4.9247 -11.8309,4.9247c-8.1766,0 -10.3661,-3.2368 -10.3661,-3.2368" fill="none" stroke="#231f20" stroke-width="0.90231" stroke-linecap="round" stroke-linejoin="miter"/><path d="M175.38371,193.97076c0,0 -1.50164,-1.48918 -1.60717,-3.1119c-0.38141,-5.86491 0.1729,-19.24141 0.1729,-22.22697c0,-1.11065 1.43428,-2.15141 1.43428,-2.15141c0,0 1.69641,-1.19523 3.34664,-1.19523c3.91481,0 19.40854,-0.12283 24.65136,0.15217c1.03596,0.05434 2.36083,1.04306 2.36083,1.04306c0,0 1.48874,0.08621 1.57645,1.409c0.36237,5.46506 -0.14218,20.51367 -0.14218,23.69082c0,1.21781 -1.43428,2.39046 -1.43428,2.39046c0,0 -0.29452,1.75535 -1.93348,1.88543c-6.27466,0.49799 -22.4608,0.02694 -25.5568,0.02694c-1.01241,0 -2.86855,-1.91237 -2.86855,-1.91237z" fill="#00d2ff" stroke="none" stroke-width="NaN" stroke-linecap="butt" stroke-linejoin="miter"/><path d="M187.72541,172.09934l0.80359,-43.39386l43.79565,-1.20538" fill="none" stroke="#00d2ff" stroke-width="12.5" stroke-linecap="round" stroke-linejoin="miter"/></g></g></svg>