<svg version="1.1" xmlns="http://www.w3.org/2000/svg" xmlns:xlink="http://www.w3.org/1999/xlink" width="68.90597" height="91.27688" viewBox="0,0,68.90597,91.27688"><defs><linearGradient x1="205.54701" y1="180" x2="274.45299" y2="180" gradientUnits="userSpaceOnUse" id="color-1"><stop offset="0" stop-color="#549a10"/><stop offset="1" stop-color="#99670f"/></linearGradient></defs><g transform="translate(-205.54701,-134.36156)"><g data-paper-data="{&quot;isPaintingLayer&quot;:true}" fill="url(#color-1)" fill-rule="nonzero" stroke="none" stroke-width="1" stroke-linecap="butt" stroke-linejoin="miter" stroke-miterlimit="10" stroke-dasharray="" stroke-dashoffset="0" style="mix-blend-mode: normal"><path d="M274.45299,142.95448v38.66814c0,0.76723 -0.30689,1.53445 -0.92067,1.84134c-4.91024,4.29646 -11.04804,6.44469 -17.33929,6.44469c-6.29125,0 -12.42905,-2.30168 -17.33929,-6.44469c-3.98957,-3.37579 -8.89981,-5.37058 -14.11694,-5.37058c-4.7568,0 -9.36015,1.53445 -13.19627,4.60335l-0.4695,40.17969c0,1.53445 -1.22756,2.76201 -2.76201,2.76201c-1.53445,0 -2.76201,-1.22756 -2.76201,-2.76201l0.4695,-79.92195c0,-1.22756 0.76723,-1.99479 1.53445,-2.45512c4.91024,-3.98957 10.74115,-6.1378 16.87895,-6.1378c6.29125,0 12.58249,2.30168 17.49273,6.44469c3.98957,3.37579 8.89981,5.21713 14.11694,5.21713c5.21713,0 10.12737,-1.84134 14.11694,-5.21713c0.92067,-0.61378 1.99479,-0.76723 2.91546,-0.30689c0.92067,0.46034 1.38101,1.38101 1.38101,2.45512z"/></g></g></svg>